<svg width="48" height="48" viewBox="0 0 48 48" fill="none" xmlns="http://www.w3.org/2000/svg">
<path d="M24 48C37.2548 48 48 37.2548 48 24C48 10.7452 37.2548 0 24 0C10.7452 0 0 10.7452 0 24C0 37.2548 10.7452 48 24 48Z" fill="#34E0A1"/>
<path d="M38.823 19.3176L41.7192 16.1669H35.2968C32.0816 13.9705 28.1986 12.6914 23.9995 12.6914C19.8055 12.6914 15.9333 13.9734 12.7235 16.1669H6.28516L9.18103 19.3176C7.40585 20.9373 6.29308 23.2705 6.29308 25.8607C6.29308 30.7492 10.2564 34.7125 15.1448 34.7125C17.4672 34.7125 19.5826 33.8168 21.1619 32.3526L23.9991 35.4418L26.8363 32.3555C28.4157 33.8197 30.5289 34.7125 32.8509 34.7125C37.7394 34.7125 41.7081 30.7492 41.7081 25.8607C41.7106 23.2676 40.5978 20.9348 38.8226 19.3176H38.823ZM15.1474 31.8512C11.8382 31.8512 9.1569 29.1699 9.1569 25.8607C9.1569 22.5515 11.8386 19.8702 15.1474 19.8702C18.4565 19.8702 21.1378 22.5519 21.1378 25.8607C21.1378 29.1695 18.4562 31.8512 15.1474 31.8512ZM24.002 25.6865C24.002 21.7444 21.1353 18.3604 17.3517 16.915C19.3979 16.0596 21.6422 15.5851 23.9995 15.5851C26.3564 15.5851 28.6036 16.0596 30.6498 16.915C26.8691 18.3633 24.0024 21.7444 24.0024 25.6865H24.002ZM32.8538 31.8512C29.5446 31.8512 26.8633 29.1699 26.8633 25.8607C26.8633 22.5515 29.545 19.8702 32.8538 19.8702C36.1629 19.8702 38.8442 22.5519 38.8442 25.8607C38.8442 29.1695 36.1626 31.8512 32.8538 31.8512ZM32.8538 22.7179C31.1186 22.7179 29.7135 24.123 29.7135 25.8582C29.7135 27.593 31.1186 28.9981 32.8538 28.9981C34.5886 28.9981 35.9937 27.593 35.9937 25.8582C35.9937 24.1258 34.5886 22.7179 32.8538 22.7179ZM18.2877 25.8607C18.2877 27.5956 16.8826 29.0007 15.1474 29.0007C13.4125 29.0007 12.0074 27.5956 12.0074 25.8607C12.0074 24.1255 13.4125 22.7204 15.1474 22.7204C16.8822 22.7179 18.2877 24.1255 18.2877 25.8607Z" fill="black"/>
</svg>
