<svg width="265" height="24" viewBox="0 0 265 24" fill="none" xmlns="http://www.w3.org/2000/svg">
<path d="M128.777 2.65323C128.762 2.67524 127.924 2.69725 126.93 2.70825C121.497 2.76327 117.228 4.28181 114.729 7.04379C114.155 7.67101 113.379 9.01349 113.037 9.94882C112.525 11.3683 112.385 14.0863 112.742 15.7699C113.487 19.2031 115.707 21.5799 119.417 22.9004C121.994 23.8137 123.857 24.0558 127.815 23.9898C129.352 23.9678 130.749 23.9238 130.92 23.9018C131.09 23.8688 131.587 23.8137 132.006 23.7807C132.441 23.7367 133.031 23.6707 133.326 23.6487C134.179 23.5606 135.778 23.2855 137.02 23.0215L138.138 22.7794V17.1454V11.5004H131.696H125.254V13.7011V15.9019H127.893H130.531V17.4975V19.0931L130.112 19.1701C129.864 19.2251 128.731 19.2581 127.582 19.2581C125.642 19.2581 125.424 19.2361 124.633 18.972C122.18 18.1577 120.938 16.4851 120.83 13.8662C120.69 10.8071 122.04 8.71638 124.741 7.80306C125.812 7.43993 126.076 7.39591 127.567 7.34089C129.538 7.28588 132.037 7.58298 133.76 8.07816C134.567 8.32024 134.893 8.36426 135.002 8.27623C135.08 8.1992 135.607 7.29688 136.182 6.27352C136.741 5.23915 137.284 4.31482 137.377 4.20478C137.47 4.08374 137.517 3.9847 137.486 3.9627C137.33 3.85266 135.67 3.45652 134.335 3.21443C132.736 2.92833 128.933 2.54319 128.777 2.65323Z" fill="white"/>
<path d="M42.0332 9.4165V2.63382H49.78V9.4165H42.0332Z" fill="white"/>
<path d="M42.0332 16.5762V9.79349H49.78V16.5762H42.0332Z" fill="white"/>
<path d="M42.1768 23.7354V16.9527H49.9235V23.7354H42.1768Z" fill="white"/>
<path d="M25.3921 16.5762V9.79349H33.1389V16.5762H25.3921Z" fill="white"/>
<path d="M25.3921 23.7354V16.9527H33.1389V23.7354H25.3921Z" fill="white"/>
<path d="M33.1389 2.63379V9.41647H25.3921V2.63379L33.1389 2.63379Z" fill="white"/>
<rect x="33.7126" y="9.79346" width="7.74677" height="6.78268" fill="white"/>
<path d="M148.193 2.4815C144.98 2.4815 144.204 2.51452 144.141 2.63556C144.095 2.71259 144.095 5.96974 144.126 9.86512C144.172 16.2034 144.204 17.0287 144.452 17.7219C144.731 18.5032 145.756 20.1538 146.128 20.4289C146.237 20.5169 146.532 20.77 146.78 21.0011C147.339 21.5293 148.783 22.2995 150.04 22.7177C151.81 23.3229 153.471 23.532 156.342 23.543L156.374 18.8443C154.387 18.7123 153.114 18.03 152.555 16.8086C152.182 16.0053 152.167 15.8072 152.167 8.94079L152.151 2.4815H148.193Z" fill="white"/>
<path d="M187.002 6.60404L186.867 2.50226H181.559L181.341 3.01944C181.217 3.31655 179.075 7.9822 176.591 13.4071C174.108 18.821 172.074 23.2886 172.074 23.3326C172.074 23.3767 174.046 23.4097 176.467 23.4097H180.86L181.14 22.6174C181.419 21.7921 181.621 21.2969 182.071 20.1855L182.335 19.5583L187.023 19.5803H187.608L187.276 14.9367H187.038C185.377 14.9367 184.027 14.9037 184.027 14.8486C184.027 14.8046 184.198 14.2984 184.399 13.7262C186.402 8.14726 186.821 6.94783 186.837 6.55169C186.837 6.30961 186.852 6.30961 186.961 6.51868C186.97 6.53239 186.984 6.56133 187.002 6.60404Z" fill="white"/>
<rect x="126.963" y="12.5068" width="3.51053" height="3.44068" fill="#D10028" stroke="#181818"/>
<rect x="132.128" y="12.5068" width="3.51053" height="3.44068" fill="#D10028" stroke="#181818"/>
<path d="M124.809 10.7756C124.809 9.29321 126.009 8.09047 127.491 8.08684L233.379 7.82724C234.939 7.82342 236.205 9.08645 236.205 10.6458C236.205 12.2025 234.943 13.4644 233.386 13.4644H127.498C126.013 13.4644 124.809 12.2606 124.809 10.7756Z" fill="#D10028"/>
<path d="M233.521 11.8589V15.7028C233.521 19.3201 236.47 22.2438 240.087 22.2135C245.081 22.1695 250.638 21.5456 255.291 22.0425C261.448 22.6999 257.483 20.4189 255.558 18.309C254.453 17.0979 255.766 16.5367 256.88 17.7395C256.984 17.8522 257.09 17.9669 257.197 18.0824C258.817 19.8262 261.029 19.0729 262.212 17.0083C262.853 15.8914 263.567 14.638 264.219 13.4553C265.957 10.298 259.365 4.60886 256.385 6.63711C253.399 8.66968 252.584 8.16098 254.408 5.04337C256.01 2.30501 257.077 0.0159092 254.753 0.254362C248.19 1.75437 246.024 1.47118 239.616 1.46017C236.252 1.4541 233.521 4.17946 233.521 7.54346V11.8589ZM245.851 6.22487C248.977 6.80807 250.343 8.44765 250.359 11.6278C250.375 14.4998 249.385 16.1724 247.171 17.0197C246.134 17.4158 244.94 17.5919 243.118 17.6139C242.332 17.626 241.689 16.9923 241.689 16.2064V11.8589V7.76715C241.689 6.83029 242.448 6.07081 243.385 6.07081C244.312 6.07081 245.427 6.13684 245.851 6.22487Z" fill="#D10028"/>
<path d="M187.002 6.60404C187.148 6.93853 187.579 8.1174 188.047 9.43471C188.56 10.9202 189.227 12.7579 189.506 13.5282L190.034 14.9367H187.276L187.429 19.5832L191.711 19.6133L192.409 21.506L193.108 23.4097H197.485C199.907 23.4097 201.878 23.3877 201.878 23.3546C201.878 23.2886 197.842 14.5845 195.98 10.6451C195.312 9.22564 194.194 6.80478 193.496 5.27524L192.239 2.50225H186.899H186.867L187.002 6.60404Z" fill="white"/>
<path d="M11.9527 2.35935C11.8285 2.37036 10.9127 2.40337 9.9347 2.43638C8.95676 2.45839 7.99433 2.51341 7.79253 2.53541C5.09154 2.99758 3.72551 3.47075 2.40606 4.41708C0.869287 5.49546 0.15523 6.79392 0.15523 8.49953C0.15523 10.2712 0.915856 11.6356 2.4992 12.736C3.70999 13.5833 5.16915 14.2106 8.22718 15.2229C11.0524 16.1472 12.0769 16.6094 12.3718 17.1156C12.8375 17.9079 12.1855 18.6561 10.7885 18.9532C8.8481 19.3714 3.94284 18.7111 0.900333 17.6218C0.496735 17.4787 0.124184 17.3577 0.0776149 17.3577C0.0310459 17.3577 0 18.5021 0 19.8996V22.4305L0.822718 22.6836C3.35296 23.4758 5.5417 23.7399 9.15856 23.6849C12.0769 23.6409 12.3252 23.6189 14.1104 23.2227C16.2991 22.7386 18.2395 21.6822 19.3261 20.3837C20.1799 19.3714 20.5058 18.4801 20.5058 17.1926C20.5058 15.2559 20.0402 14.3096 18.5655 13.1982C17.4633 12.3619 16.1594 11.7897 12.6512 10.5903C9.43797 9.51189 8.66182 9.17076 8.32031 8.68659C7.8391 8.01536 8.50659 7.25609 9.81052 7.003C11.2542 6.7279 14.188 7.09103 16.9045 7.89431C17.541 8.08138 18.1153 8.19142 18.1619 8.1474C18.224 8.09238 18.5655 7.50918 18.9225 6.84894C19.2951 6.1777 19.6521 5.53948 19.7297 5.41844C19.7918 5.29739 20.0246 4.89025 20.242 4.51612L20.6145 3.84488L19.8539 3.60279C18.7207 3.26167 16.4699 2.75549 15.4298 2.61244C14.4208 2.48039 12.3252 2.31534 11.9527 2.35935Z" fill="white"/>
<path d="M56.2552 2.76646C56.2086 2.84349 56.2086 6.07864 56.2397 9.94101C56.3017 17.4457 56.3017 17.5007 57.1089 19.0082C57.6678 20.0646 58.9717 21.33 60.198 22.0013C62.6817 23.3768 66.609 23.971 70.9554 23.6299C75.5502 23.2777 78.5462 21.9022 80.1761 19.3934C81.2782 17.7098 81.2472 17.9849 81.3093 9.89699L81.3558 2.61241H77.3975H73.4391L73.377 9.40181C73.3149 16.5433 73.2994 16.6754 72.6009 17.6437C71.9489 18.5461 70.2879 19.0852 68.5028 18.9752C67.2765 18.9092 66.0036 18.48 65.4293 17.9518C64.9636 17.5117 64.5134 16.5984 64.3737 15.8171C64.3271 15.542 64.2806 12.4609 64.2806 8.96166L64.265 2.61241H60.3067C57.0779 2.61241 56.3173 2.64542 56.2552 2.76646Z" fill="white"/>
<path d="M87.3943 13.011V23.4097H91.4303H95.4662V19.6683V15.916L96.4287 15.949L97.3756 15.982L99.7506 18.843C101.055 20.4166 102.296 21.9461 102.529 22.2543C102.762 22.5514 103.041 22.8815 103.166 22.9805C103.29 23.0685 103.383 23.2116 103.383 23.2776C103.383 23.3767 104.563 23.4097 107.962 23.4097C110.477 23.4097 112.542 23.3877 112.542 23.3546C112.542 23.3216 110.663 21.2969 108.366 18.8541L104.175 14.4085L104.78 14.1224C105.805 13.6382 107.124 12.7139 107.76 12.0316C108.63 11.0853 108.987 10.15 108.987 8.88452C108.971 6.96984 108.474 5.93547 107 4.81308C106.348 4.3069 105.836 4.05381 104.733 3.66867C102.079 2.76635 100.729 2.64531 93.1067 2.6233L87.3943 2.6123V13.011ZM99.4246 7.28895C100.48 7.64108 100.899 8.19127 100.899 9.17062C100.884 10.7442 99.673 11.4814 96.9099 11.6025L95.4662 11.6685V9.26966V6.87081L97.0341 6.94783C98.2293 7.00285 98.7882 7.07988 99.4246 7.28895Z" fill="white"/>
<path d="M206.3 13.011V23.4097H210.259H214.217V19.6683V15.916L215.257 15.949C216.251 15.982 216.297 15.993 216.592 16.3672C216.747 16.5762 218.113 18.2488 219.619 20.0755L222.351 23.4097H226.915C230.516 23.4097 231.448 23.3767 231.354 23.2666C231.292 23.2006 229.445 21.2309 227.256 18.8981C225.068 16.5652 223.236 14.6065 223.174 14.5295C223.096 14.4525 223.345 14.2654 223.795 14.0453C225.813 13.055 227.349 11.5145 227.722 10.106C228.079 8.76348 227.784 6.96984 227.023 5.91347C226.263 4.85709 224.586 3.85574 222.724 3.37156C220.395 2.76635 218.61 2.6343 212.013 2.6233L206.3 2.60129V13.011ZM217.787 7.1349C219.215 7.47602 219.914 8.27931 219.759 9.37969C219.712 9.72082 219.541 10.172 219.386 10.4031C218.858 11.1733 217.337 11.6355 215.35 11.6355H214.217V9.34668C214.217 8.08123 214.264 7.01386 214.341 6.95884C214.496 6.8488 217.12 6.96984 217.787 7.1349Z" fill="white"/>
<path d="M156.043 18.8442L156.011 23.5429C160.575 23.5649 163.183 22.9707 165.543 21.3971C166.769 20.5718 167.514 19.7905 168.073 18.6791C168.849 17.1716 168.88 16.8965 168.896 9.43587V2.48141H164.86H160.839L160.793 9.49089L160.746 16.5114L160.389 17.1386C159.706 18.349 158.092 18.9763 156.043 18.8442Z" fill="white"/>
</svg>
