<svg width="288" height="24" viewBox="0 0 288 24" fill="none" xmlns="http://www.w3.org/2000/svg">
<g clip-path="url(#clip0_436_6417)">
<path d="M140.465 1.76452C140.448 1.7874 139.534 1.81028 138.45 1.82172C132.524 1.87892 127.868 3.45767 125.142 6.32914C124.515 6.98127 123.669 8.37697 123.296 9.34934C122.738 10.8251 122.585 13.6509 122.975 15.4012C123.788 18.9706 126.208 21.4416 130.256 22.8144C133.066 23.764 135.098 24.0157 139.415 23.947C141.092 23.9242 142.616 23.8784 142.802 23.8555C142.988 23.8212 143.53 23.764 143.987 23.7297C144.461 23.6839 145.105 23.6153 145.426 23.5924C146.357 23.5009 148.101 23.2149 149.456 22.9403L150.675 22.6886V16.8313V10.9624H143.649H136.622V13.2504V15.5385H139.5H142.379V17.1973V18.8561L141.921 18.9362C141.65 18.9934 140.414 19.0278 139.162 19.0278C137.045 19.0278 136.808 19.0049 135.944 18.7303C133.269 17.8838 131.914 16.1448 131.796 13.4221C131.644 10.2417 133.117 8.06809 136.063 7.1185C137.231 6.741 137.519 6.69522 139.144 6.63803C141.295 6.58083 144.021 6.88971 145.9 7.40455C146.781 7.65623 147.137 7.70196 147.255 7.61045C147.339 7.53036 147.915 6.5923 148.542 5.52832C149.151 4.45296 149.743 3.49199 149.845 3.37758C149.947 3.25174 149.998 3.14878 149.964 3.1259C149.794 3.0115 147.983 2.59965 146.527 2.34797C144.783 2.05052 140.635 1.65012 140.465 1.76452Z" fill="white"/>
<path d="M45.8486 8.79612V1.74451H54.2985V8.79612H45.8486Z" fill="white"/>
<path d="M45.8486 16.2395V9.18787H54.2985V16.2395H45.8486Z" fill="white"/>
<path d="M46.0049 23.6828V16.6312H54.4548V23.6828H46.0049Z" fill="white"/>
<path d="M27.6973 16.2395V9.18787H36.1471V16.2395H27.6973Z" fill="white"/>
<path d="M27.6973 23.6828V16.6312H36.1471V23.6828H27.6973Z" fill="white"/>
<path d="M36.1471 1.74451V8.79612H27.6973V1.74451H36.1471Z" fill="white"/>
<path d="M45.2223 9.18787H36.7725V16.2395H45.2223V9.18787Z" fill="white"/>
<path d="M161.643 1.58594C158.138 1.58594 157.292 1.62026 157.224 1.7461C157.173 1.82618 157.173 5.21248 157.207 9.26229C157.258 15.8519 157.291 16.7098 157.563 17.4306C157.867 18.2428 158.985 19.9589 159.391 20.2449C159.51 20.3364 159.832 20.5995 160.103 20.8398C160.712 21.3889 162.286 22.1897 163.658 22.6244C165.588 23.2537 167.4 23.471 170.533 23.4824L170.566 18.5975C168.399 18.4602 167.01 17.7509 166.401 16.4811C165.995 15.6459 165.978 15.44 165.978 8.30134L165.961 1.58594H161.643Z" fill="white"/>
<path d="M203.975 5.87197L203.828 1.60754H198.037L197.8 2.14523C197.665 2.45412 195.329 7.30478 192.619 12.9448C189.91 18.5734 187.692 23.218 187.692 23.2638C187.692 23.3096 189.842 23.3439 192.484 23.3439H197.275L197.58 22.5202C197.885 21.6622 198.105 21.1474 198.596 19.992L198.884 19.3398L203.998 19.3627H204.636L204.274 14.535H204.015C202.203 14.535 200.729 14.5007 200.729 14.4435C200.729 14.3977 200.916 13.8714 201.136 13.2766C203.32 7.47637 203.778 6.22938 203.794 5.81752C203.794 5.56584 203.811 5.56584 203.929 5.78321C203.94 5.79748 203.954 5.82756 203.975 5.87197Z" fill="white"/>
<path d="M141.926 12.4229H138.875V15.1718H141.926V12.4229Z" fill="#D10028" stroke="#181818" stroke-width="4"/>
<path d="M147.56 12.4229H144.509V15.1718H147.56V12.4229Z" fill="#D10028" stroke="#181818" stroke-width="4"/>
<path d="M136.137 8.3159C136.137 7.82078 136.73 7.41897 137.462 7.41722L256.308 7.13953C257.044 7.13779 257.643 7.54066 257.643 8.03821V12.1056C257.643 12.6019 257.047 13.0043 256.313 13.0043H137.467C136.732 13.0043 136.137 12.6019 136.137 12.1056V8.3159Z" fill="#D10028"/>
<path d="M254.865 12.144V21.629C254.865 22.365 255.755 22.9592 256.845 22.9506L262.027 22.9092C267.474 22.8634 273.536 22.2148 278.611 22.7313C287.144 23.5997 277.854 19.537 277.95 17.1729C277.966 16.7516 278.639 16.6073 279.039 16.9307C279.644 17.4197 280.36 18.264 281.143 18.7931C281.773 19.2203 282.661 18.8716 283.117 18.3521C284.565 16.6996 287.783 13.6638 287.954 12.0344C287.963 11.9466 287.949 11.8627 287.921 11.7768C286.733 8.1941 280.018 2.18 278.361 5.72829C278.023 6.45315 276.691 7.06267 276.526 6.31074C276.102 4.37563 282.743 -0.282055 278.199 0.0640658C278.09 0.0723685 277.969 0.0913841 277.865 0.113966C270.83 1.63443 268.451 1.34431 261.512 1.33295L256.826 1.32489C255.744 1.32302 254.865 1.91526 254.865 2.64647V12.144ZM268.314 6.28658C271.724 6.89287 273.214 8.59745 273.231 11.9037C273.248 14.8896 272.169 16.6285 269.753 17.5094C268.623 17.9212 267.32 18.1043 265.333 18.1271C264.478 18.1397 263.774 17.6746 263.774 17.0964V12.144V7.37657C263.774 6.68612 264.602 6.1264 265.625 6.1264C266.636 6.1264 267.851 6.19502 268.314 6.28658Z" fill="#D10028"/>
<path d="M203.974 5.87197C204.133 6.2197 204.604 7.44534 205.114 8.81488C205.673 10.3593 206.401 12.2698 206.706 13.0706L207.281 14.535H204.273L204.44 19.3657L209.11 19.397L209.872 21.3648L210.634 23.3439H215.409C218.05 23.3439 220.2 23.321 220.2 23.2867C220.2 23.218 215.799 14.1689 213.767 10.0733C213.038 8.5975 211.819 6.08067 211.057 4.49047L209.686 1.60754H203.862H203.827L203.974 5.87197Z" fill="white"/>
<path d="M13.0375 1.45872C12.9021 1.47016 11.9031 1.50448 10.8364 1.5388C9.7697 1.56168 8.71988 1.61889 8.49979 1.64177C5.55365 2.12225 4.06365 2.61418 2.62444 3.59804C0.948186 4.71918 0.169318 6.06911 0.169318 7.84236C0.169318 9.68422 0.998979 11.1028 2.72603 12.2468C4.04672 13.1277 5.63831 13.7798 8.97385 14.8323C12.0555 15.7933 13.173 16.2738 13.4947 16.8C14.0026 17.6237 13.2915 18.4017 11.7676 18.7106C9.65117 19.1452 4.30069 18.4589 0.982048 17.3263C0.541819 17.1776 0.135455 17.0517 0.0846592 17.0517C0.0338637 17.0517 0 18.2415 0 19.6944V22.3256L0.897385 22.5888C3.65728 23.4124 6.04467 23.687 9.98979 23.6298C13.173 23.584 13.4439 23.5612 15.3911 23.1493C17.7785 22.646 19.8949 21.5477 21.0802 20.1978C22.0114 19.1452 22.367 18.2186 22.367 16.8801C22.367 14.8666 21.859 13.8827 20.2505 12.7273C19.0484 11.8579 17.6261 11.263 13.7994 10.016C10.2945 8.89487 9.44798 8.54021 9.07548 8.03684C8.55057 7.33899 9.27867 6.54958 10.7009 6.28648C12.2756 6.00049 15.4757 6.37799 18.4388 7.21312C19.133 7.40761 19.7595 7.522 19.8103 7.47628C19.878 7.41908 20.2505 6.81274 20.6399 6.1263C21.0463 5.42845 21.4357 4.76494 21.5204 4.6391C21.5881 4.51326 21.8421 4.08997 22.0791 3.701L22.4855 3.00315L21.6559 2.75146C20.4198 2.39681 17.9647 1.87057 16.8303 1.72185C15.7297 1.58456 13.4439 1.41296 13.0375 1.45872Z" fill="white"/>
<path d="M61.3608 1.88208C61.3101 1.96217 61.3101 5.3256 61.3439 9.34111C61.4116 17.1433 61.4116 17.2005 62.292 18.7678C62.9016 19.8661 64.3239 21.1817 65.6615 21.8795C68.3706 23.3096 72.6543 23.9273 77.3953 23.5727C82.4072 23.2066 85.6753 21.7766 87.4529 19.1682C88.6547 17.4179 88.621 17.7038 88.6891 9.29533L88.7399 1.72192H84.4219H80.1046L80.0366 8.78055C79.9693 16.2052 79.9521 16.3425 79.19 17.3492C78.4788 18.2873 76.6672 18.8479 74.72 18.7335C73.3824 18.6648 71.994 18.2187 71.3675 17.6695C70.8596 17.2119 70.3686 16.2624 70.2162 15.4502C70.1654 15.1641 70.1146 11.9609 70.1146 8.32291L70.0976 1.72192H65.78C62.2582 1.72192 61.4285 1.75624 61.3608 1.88208Z" fill="white"/>
<path d="M95.3262 12.5329V23.3439H99.7287H104.13V19.4542V15.5531L105.18 15.5875L106.213 15.6218L108.804 18.5962C110.226 20.2321 111.58 21.8223 111.835 22.1427C112.089 22.4516 112.393 22.7947 112.529 22.8977C112.664 22.9892 112.766 23.1379 112.766 23.2066C112.766 23.3096 114.053 23.3439 117.761 23.3439C120.504 23.3439 122.755 23.321 122.755 23.2867C122.755 23.2523 120.707 21.1474 118.201 18.6076L113.63 13.9858L114.29 13.6884C115.407 13.185 116.847 12.224 117.541 11.5147C118.489 10.5309 118.879 9.55843 118.879 8.24282C118.861 6.25225 118.319 5.17686 116.711 4.00996C116 3.48371 115.442 3.22059 114.239 2.82018C111.343 1.88208 109.871 1.75624 101.557 1.73336L95.3262 1.72192V12.5329ZM108.449 6.58402C109.599 6.9501 110.057 7.52208 110.057 8.54028C110.04 10.1762 108.719 10.9427 105.705 11.0686L104.13 11.1372V8.64326V6.14927L105.841 6.22936C107.144 6.28655 107.754 6.36664 108.449 6.58402Z" fill="white"/>
<path d="M225.024 12.5329V23.3439H229.342H233.66V19.4542V15.5531L234.794 15.5874C235.878 15.6217 235.929 15.6331 236.25 16.0221C236.42 16.2395 237.91 17.9784 239.552 19.8774L242.532 23.3439H247.51C251.438 23.3439 252.454 23.3096 252.353 23.1951C252.285 23.1265 250.27 21.0787 247.883 18.6534C245.495 16.2281 243.498 14.1917 243.429 14.1116C243.345 14.0315 243.616 13.8371 244.107 13.6083C246.308 12.5786 247.984 10.977 248.391 9.51267C248.78 8.11697 248.458 6.25221 247.629 5.15395C246.799 4.05569 244.97 3.01463 242.938 2.51126C240.398 1.88205 238.452 1.74477 231.255 1.73333L225.024 1.71045V12.5329ZM237.554 6.42381C239.112 6.77847 239.873 7.6136 239.705 8.75762C239.654 9.11223 239.467 9.58129 239.298 9.82155C238.723 10.6224 237.063 11.1029 234.896 11.1029H233.66V8.72326C233.66 7.40765 233.711 6.29794 233.795 6.24074C233.965 6.12634 236.826 6.25221 237.554 6.42381Z" fill="white"/>
<path d="M170.205 18.5975L170.171 23.4824C175.149 23.5053 177.993 22.8876 180.567 21.2516C181.904 20.3936 182.717 19.5813 183.327 18.4259C184.173 16.8586 184.207 16.5726 184.224 8.81612V1.58594H179.822H175.436L175.386 8.87332L175.335 16.1722L174.946 16.8242C174.201 18.0827 172.44 18.7348 170.205 18.5975Z" fill="white"/>
</g>
<defs>
<clipPath id="clip0_436_6417">
<rect width="288" height="24" fill="white"/>
</clipPath>
</defs>
</svg>
