<svg width="1012" height="521" viewBox="0 0 1012 521" fill="none" xmlns="http://www.w3.org/2000/svg">
<rect width="1012" height="521" fill="#D9D9D9"/>
<rect x="37" y="43.6455" width="927.677" height="477.095" fill="#F9F6F6"/>
<rect x="170.043" y="132.982" width="664.764" height="297.389" fill="#D9D9D9"/>
<rect width="0.465035" height="159.555" transform="matrix(0.776326 0.630331 -0.826251 0.563302 170.896 430.373)" fill="#181818"/>
<rect width="0.465035" height="159.555" transform="matrix(0.776326 0.630331 -0.826251 0.563302 170.896 430.373)" stroke="black"/>
<rect width="0.465035" height="159.555" transform="matrix(0.776326 -0.630331 0.826251 0.563302 834.807 430.435)" fill="#181818"/>
<rect width="0.465035" height="159.555" transform="matrix(0.776326 -0.630331 0.826251 0.563302 834.807 430.435)" stroke="black"/>
<rect width="0.465035" height="156.826" transform="matrix(0.776326 0.630331 -0.826251 0.563302 964.385 44.668)" fill="#181818"/>
<rect width="0.465035" height="156.826" transform="matrix(0.776326 0.630331 -0.826251 0.563302 964.385 44.668)" stroke="black"/>
<rect width="0.465035" height="157.784" transform="matrix(0.776326 -0.630331 0.826251 0.563302 40.0635 44.2012)" fill="#181818"/>
<rect width="0.465035" height="157.784" transform="matrix(0.776326 -0.630331 0.826251 0.563302 40.0635 44.2012)" stroke="black"/>
<g filter="url(#filter0_i_143_1366)">
<path d="M37 47.6455C37 45.4364 38.7909 43.6455 41 43.6455H485.938H960.805C963.014 43.6455 964.805 45.4364 964.805 47.6455V235.255C964.805 237.464 963.014 239.255 960.805 239.255H41C38.7909 239.255 37 237.464 37 235.255V47.6455Z" fill="#D10028"/>
</g>
<rect x="37" y="183.423" width="927.805" height="0.795159" fill="white"/>
<rect x="37" y="84.0254" width="927.805" height="0.795159" fill="white"/>
<rect x="37" y="133.724" width="927.805" height="0.795159" fill="white"/>
<path d="M455.924 356.801H444.924V375.739H426.049V356.801H387.049V343.364L427.111 284.364H444.924V341.801H455.924V356.801ZM426.049 341.801V326.301C426.049 324.843 426.07 323.114 426.111 321.114C426.195 319.114 426.278 317.114 426.361 315.114C426.445 313.114 426.528 311.343 426.611 309.801C426.736 308.218 426.82 307.114 426.861 306.489H426.361C425.57 308.197 424.736 309.864 423.861 311.489C422.986 313.072 421.965 314.739 420.799 316.489L404.049 341.801H426.049ZM526.611 330.051C526.611 337.426 526.028 344.01 524.861 349.801C523.736 355.593 521.903 360.51 519.361 364.551C516.861 368.593 513.57 371.676 509.486 373.801C505.403 375.926 500.445 376.989 494.611 376.989C487.278 376.989 481.257 375.135 476.549 371.426C471.84 367.676 468.361 362.301 466.111 355.301C463.861 348.26 462.736 339.843 462.736 330.051C462.736 320.176 463.757 311.739 465.799 304.739C467.882 297.697 471.257 292.301 475.924 288.551C480.59 284.801 486.82 282.926 494.611 282.926C501.903 282.926 507.903 284.801 512.611 288.551C517.361 292.26 520.882 297.635 523.174 304.676C525.465 311.676 526.611 320.135 526.611 330.051ZM481.924 330.051C481.924 337.01 482.299 342.822 483.049 347.489C483.84 352.114 485.153 355.593 486.986 357.926C488.82 360.26 491.361 361.426 494.611 361.426C497.82 361.426 500.34 360.28 502.174 357.989C504.049 355.655 505.382 352.176 506.174 347.551C506.965 342.885 507.361 337.051 507.361 330.051C507.361 323.093 506.965 317.28 506.174 312.614C505.382 307.947 504.049 304.447 502.174 302.114C500.34 299.739 497.82 298.551 494.611 298.551C491.361 298.551 488.82 299.739 486.986 302.114C485.153 304.447 483.84 307.947 483.049 312.614C482.299 317.28 481.924 323.093 481.924 330.051ZM602.424 356.801H591.424V375.739H572.549V356.801H533.549V343.364L573.611 284.364H591.424V341.801H602.424V356.801ZM572.549 341.801V326.301C572.549 324.843 572.57 323.114 572.611 321.114C572.695 319.114 572.778 317.114 572.861 315.114C572.945 313.114 573.028 311.343 573.111 309.801C573.236 308.218 573.32 307.114 573.361 306.489H572.861C572.07 308.197 571.236 309.864 570.361 311.489C569.486 313.072 568.465 314.739 567.299 316.489L550.549 341.801H572.549Z" fill="#181818"/>
<defs>
<filter id="filter0_i_143_1366" x="37" y="43.6455" width="927.805" height="199.609" filterUnits="userSpaceOnUse" color-interpolation-filters="sRGB">
<feFlood flood-opacity="0" result="BackgroundImageFix"/>
<feBlend mode="normal" in="SourceGraphic" in2="BackgroundImageFix" result="shape"/>
<feColorMatrix in="SourceAlpha" type="matrix" values="0 0 0 0 0 0 0 0 0 0 0 0 0 0 0 0 0 0 127 0" result="hardAlpha"/>
<feOffset dy="13"/>
<feGaussianBlur stdDeviation="2"/>
<feComposite in2="hardAlpha" operator="arithmetic" k2="-1" k3="1"/>
<feColorMatrix type="matrix" values="0 0 0 0 0 0 0 0 0 0 0 0 0 0 0 0 0 0 0.25 0"/>
<feBlend mode="normal" in2="shape" result="effect1_innerShadow_143_1366"/>
</filter>
</defs>
</svg>
