<svg width="3681" height="454" viewBox="0 0 3681 454" fill="none" xmlns="http://www.w3.org/2000/svg">
<path d="M1795.32 33.3785C1795.1 33.8113 1783.42 34.2441 1769.57 34.4605C1693.82 35.5426 1634.31 65.4072 1599.47 119.726C1591.46 132.062 1580.64 158.464 1575.88 176.858C1568.74 204.775 1566.79 258.229 1571.77 291.34C1582.16 358.86 1613.1 405.604 1664.83 431.573C1700.75 449.535 1726.72 454.296 1781.9 452.998C1803.33 452.565 1822.81 451.7 1825.19 451.267C1827.57 450.617 1834.49 449.535 1840.33 448.886C1846.39 448.021 1854.62 446.722 1858.73 446.289C1870.63 444.558 1892.92 439.148 1910.24 433.954L1925.82 429.193V318.391V207.372H1836.01H1746.2V250.654V293.936H1782.99H1819.78V325.316V356.695L1813.93 358.21C1810.47 359.292 1794.67 359.942 1778.66 359.942C1751.61 359.942 1748.58 359.509 1737.54 354.315C1703.35 338.301 1686.03 305.406 1684.52 253.901C1682.57 193.738 1701.4 152.621 1739.05 134.658C1753.99 127.517 1757.67 126.651 1778.44 125.569C1805.93 124.487 1840.77 130.33 1864.79 140.069C1876.04 144.83 1880.59 145.695 1882.1 143.964C1883.18 142.449 1890.54 124.704 1898.55 104.577C1906.34 84.2349 1913.91 66.0564 1915.21 63.8923C1916.51 61.5118 1917.16 59.5641 1916.73 59.1313C1914.56 56.9672 1891.41 49.1764 1872.8 44.4154C1850.51 38.7887 1797.49 31.2144 1795.32 33.3785Z" fill="#2C2121"/>
<path d="M586 166.393V33H694V166.393H586Z" fill="#2C2121"/>
<path d="M586 307.196V173.803H694V307.196H586Z" fill="#2C2121"/>
<path d="M588 448V314.607H696V448H588Z" fill="#2C2121"/>
<path d="M354 307.196V173.803H462V307.196H354Z" fill="#2C2121"/>
<path d="M354 448V314.607H462V448H354Z" fill="#2C2121"/>
<path d="M462 32.9999V166.393L354 166.393V32.9999L462 32.9999Z" fill="#2C2121"/>
<rect x="470" y="173.803" width="108" height="133.393" fill="#2C2121"/>
<path d="M2066 30C2021.2 30 2010.38 30.6492 2009.52 33.0298C2008.87 34.5446 2008.87 98.6021 2009.3 175.211C2009.95 299.864 2010.38 316.094 2013.85 329.728C2017.74 345.093 2032.02 377.555 2037.22 382.965C2038.73 384.696 2042.85 389.674 2046.31 394.218C2054.1 404.606 2074.22 419.755 2091.75 427.978C2116.42 439.881 2139.58 443.993 2179.62 444.209L2180.05 351.802C2152.35 349.205 2134.6 335.788 2126.81 311.766C2121.62 295.968 2121.4 292.073 2121.4 157.033L2121.19 30H2066Z" fill="#2C2121"/>
<path d="M2607.05 111.077L2605.17 30.4083H2531.16L2528.13 40.5796C2526.4 46.4227 2496.54 138.181 2461.91 244.871C2427.29 351.345 2398.94 439.207 2398.94 440.073C2398.94 440.939 2426.42 441.588 2460.18 441.588H2521.42L2525.32 426.006C2529.21 409.775 2532.03 400.037 2538.3 378.18L2541.98 365.844L2607.34 366.277H2615.5L2610.87 274.952H2607.56C2584.4 274.952 2565.57 274.303 2565.57 273.221C2565.57 272.355 2567.95 262.4 2570.77 251.147C2598.68 141.427 2604.53 117.838 2604.74 110.047C2604.74 105.286 2604.96 105.286 2606.47 109.398C2606.6 109.668 2606.79 110.237 2607.05 111.077Z" fill="#2C2121"/>
<rect x="1775" y="235" width="39" height="52" fill="#D10028" stroke="white" stroke-width="4"/>
<rect x="1847" y="235" width="39" height="52" fill="#D10028" stroke="white" stroke-width="4"/>
<path d="M1740 157.31C1740 147.944 1747.58 140.343 1756.94 140.31L3275.94 135.057C3285.35 135.024 3293 142.645 3293 152.057V228.998C3293 238.387 3285.39 245.998 3276 245.998H1757C1747.61 245.998 1740 238.387 1740 228.998V157.31Z" fill="#D10028"/>
<path d="M3257.5 229.722V409.148C3257.5 423.071 3268.87 434.311 3282.8 434.147L3349.03 433.364C3418.66 432.498 3496.13 420.228 3561 430C3670.06 446.427 3551.33 369.574 3552.55 324.853C3552.76 316.883 3561.36 314.153 3566.47 320.272C3574.2 329.522 3583.36 345.493 3593.36 355.501C3601.42 363.583 3612.77 356.987 3618.59 347.159C3637.1 315.9 3678.23 258.473 3680.41 227.649C3680.53 225.989 3680.35 224.401 3679.99 222.777C3664.81 155.004 3578.99 41.2372 3557.81 108.359C3553.48 122.071 3536.46 133.601 3534.35 119.377C3528.93 82.7712 3613.81 -5.33664 3555.74 1.21081C3554.34 1.36787 3552.8 1.72758 3551.46 2.15475C3461.55 30.9168 3431.14 25.4287 3342.46 25.2139L3282.56 25.0614C3268.73 25.0261 3257.5 36.2293 3257.5 50.0613V229.722ZM3429.39 118.92C3472.97 130.389 3492.02 162.634 3492.24 225.177C3492.46 281.66 3478.66 314.555 3447.79 331.218C3433.34 339.009 3416.69 342.471 3391.29 342.904C3380.36 343.142 3371.37 334.343 3371.37 323.406V229.722V139.539C3371.37 126.478 3381.95 115.89 3395.02 115.89C3407.94 115.89 3423.48 117.188 3429.39 118.92Z" fill="#D10028"/>
<path d="M2607.05 111.077C2609.08 117.655 2615.1 140.84 2621.62 166.747C2628.76 195.962 2638.07 232.103 2641.96 247.251L2649.32 274.952H2610.87L2613 366.333L2672.69 366.926L2682.43 404.149L2692.17 441.588H2753.2C2786.96 441.588 2814.44 441.155 2814.44 440.506C2814.44 439.207 2758.18 268.027 2732.21 190.552C2722.9 162.635 2707.32 115.025 2697.58 84.9437L2680.05 30.4083H2605.61H2605.17L2607.05 111.077Z" fill="#2C2121"/>
<path d="M166.636 27.5949C164.905 27.8113 152.136 28.4606 138.503 29.1098C124.869 29.5426 111.451 30.6247 108.638 31.0575C70.9826 40.1467 51.9385 49.4524 33.5436 68.0636C12.119 89.2719 2.1641 114.808 2.1641 148.352C2.1641 183.194 12.7682 210.029 34.8421 231.67C51.7221 248.333 72.0646 260.669 114.697 280.578C154.084 298.757 168.367 307.846 172.479 317.801C178.971 333.383 169.882 348.099 150.405 353.942C123.354 362.165 54.9682 349.181 12.5518 327.756C6.92513 324.943 1.73128 322.562 1.08205 322.562C0.432821 322.562 0 345.069 0 372.553V422.327L11.4697 427.305C46.7446 442.886 77.2585 448.08 127.682 446.998C168.367 446.132 171.83 445.7 196.717 437.909C227.231 428.387 254.282 407.611 269.431 382.075C281.333 362.165 285.878 344.636 285.878 319.316C285.878 281.228 279.386 262.616 258.827 240.759C243.462 224.312 225.283 213.059 176.374 189.47C131.577 168.262 120.757 161.553 115.996 152.031C109.287 138.83 118.593 123.897 136.771 118.92C156.897 113.51 197.799 120.651 235.671 136.449C244.544 140.128 252.551 142.292 253.2 141.427C254.066 140.345 258.827 128.875 263.804 115.89C268.998 102.689 273.975 90.1375 275.057 87.757C275.923 85.3765 279.169 77.3693 282.199 70.0113L287.393 56.8103L276.789 52.0493C260.991 45.3405 229.611 35.3857 215.112 32.5724C201.045 29.9754 171.83 26.7293 166.636 27.5949Z" fill="#2C2121"/>
<path d="M784.271 35.6021C783.622 37.117 783.622 100.742 784.054 176.702C784.92 324.293 784.92 325.375 796.173 355.024C803.964 375.799 822.143 400.686 839.239 413.887C873.865 440.939 928.616 452.625 989.211 445.916C1053.27 438.991 1095.04 411.94 1117.76 362.598C1133.12 329.487 1132.69 334.897 1133.56 175.836L1134.21 32.5724H1079.02H1023.84L1022.97 166.098C1022.11 306.548 1021.89 309.145 1012.15 328.189C1003.06 345.934 979.906 356.539 955.018 354.374C937.922 353.076 920.176 344.636 912.169 334.248C905.677 325.592 899.401 307.63 897.453 292.265C896.804 286.854 896.155 226.26 896.155 157.441L895.938 32.5724H840.754C795.74 32.5724 785.136 33.2216 784.271 35.6021Z" fill="#2C2121"/>
<path d="M1218.39 237.08V441.588H1274.66H1330.92V368.008V294.212L1344.34 294.862L1357.54 295.511L1390.65 351.778C1408.83 382.724 1426.14 412.805 1429.39 418.865C1432.64 424.708 1436.53 431.2 1438.26 433.148C1439.99 434.879 1441.29 437.692 1441.29 438.991C1441.29 440.939 1457.74 441.588 1505.13 441.588C1540.19 441.588 1568.97 441.155 1568.97 440.506C1568.97 439.856 1542.79 400.037 1510.76 351.994L1452.33 264.564L1460.77 258.938C1475.05 249.415 1493.45 231.237 1502.32 217.82C1514.44 199.208 1519.42 180.813 1519.42 155.926C1519.2 118.271 1512.27 97.9283 1491.72 75.8545C1482.63 65.8996 1475.49 60.9221 1460.12 53.3478C1423.11 35.6021 1404.29 33.2216 1298.03 32.7888L1218.39 32.5724V237.08ZM1386.11 124.547C1400.82 131.472 1406.67 142.292 1406.67 161.553C1406.45 192.5 1389.57 206.999 1351.05 209.38L1330.92 210.678V163.501V116.323L1352.78 117.838C1369.44 118.92 1377.23 120.435 1386.11 124.547Z" fill="#2C2121"/>
<path d="M2876.09 237.08V441.588H2931.28H2986.46V368.008V294.212L3000.96 294.862C3014.81 295.511 3015.46 295.727 3019.57 303.085C3021.74 307.197 3040.78 340.091 3061.77 376.015L3099.86 441.588H3163.49C3213.69 441.588 3226.68 440.939 3225.38 438.774C3224.51 437.476 3198.76 398.739 3168.25 352.86C3137.73 306.981 3112.2 268.46 3111.33 266.945C3110.25 265.43 3113.71 261.751 3119.99 257.423C3148.12 237.946 3169.54 207.648 3174.74 179.948C3179.72 153.546 3175.6 118.271 3165 97.4955C3154.4 76.7201 3131.02 57.0267 3105.05 47.5047C3072.59 35.6021 3047.71 33.0052 2955.73 32.7888L2876.09 32.356V237.08ZM3036.24 121.517C3056.15 128.226 3065.88 144.024 3063.72 165.665C3063.07 172.373 3060.69 181.246 3058.53 185.791C3051.17 200.94 3029.96 210.029 3002.26 210.029H2986.46V165.015C2986.46 140.128 2987.11 119.136 2988.19 118.054C2990.36 115.89 3026.93 118.271 3036.24 121.517Z" fill="#2C2121"/>
<path d="M2175.43 351.802L2175 444.209C2238.62 444.642 2274.98 432.956 2307.88 402.009C2324.97 385.778 2335.36 370.413 2343.15 348.556C2353.97 318.908 2354.4 313.497 2354.62 166.771V30H2298.35H2242.3L2241.65 167.853L2241.01 305.923L2236.03 318.258C2226.51 342.064 2204 354.399 2175.43 351.802Z" fill="#2C2121"/>
</svg>
